<?xml version="1.0" standalone="no"?>
<!DOCTYPE svg PUBLIC "-//W3C//DTD SVG 20010904//EN"
 "http://www.w3.org/TR/2001/REC-SVG-20010904/DTD/svg10.dtd">
<svg version="1.0" xmlns="http://www.w3.org/2000/svg"
 width="512.000000pt" height="512.000000pt" viewBox="0 0 512.000000 512.000000"
 preserveAspectRatio="xMidYMid meet">
<metadata>
Created by potrace 1.11, written by Peter Selinger 2001-2013
</metadata>
<g transform="translate(0.000000,512.000000) scale(0.100000,-0.100000)"
fill="#000000" stroke="none">
<path d="M2109 4130 c-21 -11 -52 -37 -70 -59 -40 -47 -1556 -2732 -1581
-2800 -21 -56 -23 -140 -4 -184 18 -44 62 -86 116 -111 l45 -21 1920 0 c1595
0 1928 2 1967 14 57 16 125 72 144 118 17 40 18 118 2 164 -23 68 -1260 2274
-1296 2313 -46 48 -104 75 -160 76 -97 0 -142 -41 -266 -244 -77 -126 -91
-144 -101 -128 -6 9 -106 188 -221 397 -211 385 -245 434 -316 468 -48 23
-133 21 -179 -3z m339 -706 l239 -432 -479 -838 c-264 -462 -487 -863 -496
-891 l-17 -53 -493 0 -494 0 20 33 c11 17 347 614 747 1325 400 711 729 1291
730 1290 2 -2 111 -197 243 -434z m1351 -1153 c325 -580 591 -1056 591 -1058
0 -2 -93 -2 -207 -1 l-207 3 -8 31 c-4 17 -228 416 -496 886 l-489 856 105
182 c70 121 108 177 113 168 4 -7 273 -487 598 -1067z m-526 -316 l425 -740
-428 -3 c-236 -1 -625 -1 -864 0 l-436 3 406 710 c223 391 417 730 431 754 19
33 28 40 34 30 4 -8 199 -347 432 -754z"/>
</g>
</svg>
