<svg width="324" height="135" viewBox="0 0 324 135" fill="" xmlns="http://www.w3.org/2000/svg">
<path d="M0 75.24V100.32H62.51V131.67H91.39V100.32H103.55V76H91.39V3.22999H55.29L0 75.24ZM29.07 76L62.51 31.54V76H29.07Z" fill=""/>
<path d="M162.284 0C125.804 0 107.374 30.78 107.374 67.45C107.374 104.12 125.804 134.9 162.284 134.9C198.764 134.9 217.194 104.12 217.194 67.45C217.194 30.78 198.764 0 162.284 0ZM162.284 25.46C179.574 25.46 186.984 42.18 186.984 67.45C186.984 92.72 179.574 109.63 162.284 109.63C144.994 109.63 137.584 92.72 137.584 67.45C137.584 42.18 144.994 25.46 162.284 25.46Z" fill=""/>
<path d="M219.688 75.24V100.32H282.198V131.67H311.078V100.32H323.238V76H311.078V3.22999H274.978L219.688 75.24ZM248.758 76L282.198 31.54V76H248.758Z" fill=""/>
</svg>
